<svg id="Layer_2" data-name="Layer 2" xmlns="http://www.w3.org/2000/svg" viewBox="0 0 22 17.64">
  <defs>
    <style>
      .cls-3{fill:#fff}
    </style>
  </defs>
  <rect y="2.22" width="22" height="13.2" rx="1.78" fill="#003f82"/>
  <path d="M11 17.64a9 9 0 0 1-9.14-8.82A9 9 0 0 1 11 0a9 9 0 0 1 9.2 8.82 9 9 0 0 1-9.2 8.82Zm6.4-8.82A6.29 6.29 0 0 0 11 2.67a6.28 6.28 0 0 0-6.36 6.15A6.27 6.27 0 0 0 11 15a6.28 6.28 0 0 0 6.43-6.18Z" opacity=".77" fill="#003f82"/>
  <path class="cls-3" d="M13.69 11.12V6.53c1.43 0 2.83-.1 4.2 0A2.23 2.23 0 0 1 20 8.85a2.19 2.19 0 0 1-2.12 2.24c-1.39.12-2.76.03-4.19.03ZM16 6.94v3.78c.92.15 1.33-.07 1.45-.88a7.41 7.41 0 0 0 0-1.94c-.16-.9-.52-1.08-1.45-.96ZM2.55 11.07V6.54h2.21v1.93h1.67V6.54h2.24v4.52H6.45V9.19H4.79v1.88ZM10.11 11.08V6.55h2.18v4.53Z"/>
</svg>