<svg xmlns="http://www.w3.org/2000/svg" viewBox="0 0 1000 1000">
  <path d="M730.9 656.8H354.7c-11 0-19.9 8.9-19.9 19.9s8.9 19.9 19.9 19.9h376.2c11 0 19.9-8.9 19.9-19.9s-8.9-19.9-19.9-19.9z"/>
  <path d="M730.9 533.8H354.7c-11 0-19.9 8.9-19.9 19.9 0 11 8.9 19.9 19.9 19.9h376.2c11 0 19.9-8.9 19.9-19.9 0-11-8.9-19.9-19.9-19.9z"/>
  <path d="M730.9 410.7H354.7c-11 0-19.9 8.9-19.9 19.9 0 11 8.9 19.9 19.9 19.9h376.2c11 0 19.9-8.9 19.9-19.9 0-11-8.9-19.9-19.9-19.9z"/>
  <path d="M354.7 327.4h169.8c11 0 19.9-8.9 19.9-19.9 0-11-8.9-19.9-19.9-19.9H354.7c-11 0-19.9 8.9-19.9 19.9 0 11 8.9 19.9 19.9 19.9z"/>
  <path d="M887.9 144.9L765.4 24.1C756.1 15 743.9 10 730.9 10H246c-27.1 0-49.1 22-49.1 49.1v781.7c0 27.1 22 49.1 49.1 49.1h607.4c27.1 0 49.2-22 49.2-49.1v-661c-.1-13-5.4-25.7-14.7-34.9zm-41.4 15h-95.6l-.1-94.3 95.7 94.3zm6.9 690.3H246c-5.1 0-9.3-4.2-9.3-9.3V59.1c0-5.1 4.2-9.3 9.3-9.3h465l.1 130.1c0 11 8.9 19.9 19.9 19.9h131.7v641.1c.1 5.1-4.2 9.3-9.3 9.3z"/>
  <path d="M782.1 920.1c-11 0-19.9 8.9-19.9 19.9 0 5.6-4.6 10.2-10.2 10.2H147.4c-5.6 0-10.2-4.6-10.2-10.2V154.8c0-5.6 4.6-10.1 10.2-10.1 11 0 19.9-8.9 19.9-19.9s-8.9-19.9-19.9-19.9c-27.5 0-49.9 22.4-49.9 49.9v785.3c0 27.5 22.4 49.9 49.9 49.9H752c27.5 0 49.9-22.4 49.9-49.9.1-11-8.8-20-19.8-20z"/>
</svg>
