<svg id="Layer_3" viewBox="0 0 24 24">
  <defs>
    <style>
      .cls-1{fill:#003087}
    </style>
  </defs>
  <path fill="#b3b3b3" d="M0 0h24v24H0z"/>
  <path d="M22.24 7.32H1.76c-.58 0-1.04.46-1.04 1.04v7.27c0 .58.46 1.04 1.04 1.04h20.49c.58 0 1.03-.46 1.03-1.04V8.36a1.02 1.02 0 0 0-1.03-1.04Z" fill="none" stroke="#003087" stroke-miterlimit="10"/>
  <path class="cls-1" d="M9.47 14.38h-2.4v-2.06H5.45v2.06h-2.4V9.59h2.4v2.06h1.62V9.59h2.4v4.8-.01z"/>
  <path class="cls-1" d="M13.18 14.38h-2.41V9.59h2.41v4.8-.01z"/>
  <path class="cls-1" d="M18.33 14.41H14.4V9.59h3.93c1.37 0 2.62 1.04 2.62 2.42s-1.25 2.4-2.62 2.4Zm-1.66-4.44v3.95c.99 0 1.57.17 1.57-1.96s-.67-1.99-1.57-1.99Z"/>
</svg>
