<svg viewBox="-3.3 -4 88.9 87.4" xmlns="http://www.w3.org/2000/svg">
  <radialGradient id="a" cx="71.5" cy="16.4" gradientUnits="userSpaceOnUse" r="90.8">
    <stop offset="0" stop-color="#fff36e"/>
    <stop offset=".5" stop-color="#fc4055"/>
    <stop offset="1" stop-color="#e31587"/>
  </radialGradient>
  <radialGradient id="b" cx="6.6" cy="20.1" gradientUnits="userSpaceOnUse" r="53.7">
    <stop offset="0" stop-color="#c60084"/>
    <stop offset="1" stop-color="#fc4055" stop-opacity="0"/>
  </radialGradient>
  <radialGradient id="c" cx="79.3" cy="11.2" gradientUnits="userSpaceOnUse" r="106.6">
    <stop offset="0" stop-color="#ffde67" stop-opacity=".6"/>
    <stop offset=".1" stop-color="#ffd966" stop-opacity=".6"/>
    <stop offset=".2" stop-color="#ffca65" stop-opacity=".5"/>
    <stop offset=".3" stop-color="#feb262" stop-opacity=".4"/>
    <stop offset=".4" stop-color="#fe8f5e" stop-opacity=".3"/>
    <stop offset=".6" stop-color="#fd6459" stop-opacity=".1"/>
    <stop offset=".7" stop-color="#fc4055" stop-opacity="0"/>
  </radialGradient>
  <radialGradient id="d" cx="42.3" cy="44.4" gradientUnits="userSpaceOnUse" r="137.5">
    <stop offset=".2" stop-color="#810220"/>
    <stop offset=".2" stop-color="#920b27" stop-opacity=".9"/>
    <stop offset=".2" stop-color="#cb2740" stop-opacity=".4"/>
    <stop offset=".3" stop-color="#ef394f" stop-opacity=".1"/>
    <stop offset=".3" stop-color="#fc4055" stop-opacity="0"/>
  </radialGradient>
  <radialGradient id="e" cx="31.9" cy="42.7" gradientUnits="userSpaceOnUse" r="137.5">
    <stop offset=".1" stop-color="#810220"/>
    <stop offset=".1" stop-color="#920b27" stop-opacity=".9"/>
    <stop offset=".2" stop-color="#cb2740" stop-opacity=".4"/>
    <stop offset=".3" stop-color="#ef394f" stop-opacity=".1"/>
    <stop offset=".3" stop-color="#fc4055" stop-opacity="0"/>
  </radialGradient>
  <linearGradient id="f" gradientUnits="userSpaceOnUse" x1="45.8" x2="69.4" y1="7.8" y2="48.6">
    <stop offset="0" stop-color="#ffbd4f"/>
    <stop offset=".5" stop-color="#ff9640" stop-opacity="0"/>
  </linearGradient>
  <radialGradient id="g" cx="-1255.9" cy="-77.4" gradientTransform="matrix(.959 0 0 .961 1273.9 86.5)" gradientUnits="userSpaceOnUse" r="88.9">
    <stop offset="0" stop-color="#ff9640"/>
    <stop offset=".8" stop-color="#fc4055"/>
  </radialGradient>
  <radialGradient id="h" cx="-1255.9" cy="-77.4" gradientTransform="matrix(.959 0 0 .961 1273.9 86.5)" gradientUnits="userSpaceOnUse" r="88.9">
    <stop offset=".1" stop-color="#ffde67"/>
    <stop offset=".1" stop-color="#ffdc66"/>
    <stop offset=".2" stop-color="#ffd562" stop-opacity=".9"/>
    <stop offset=".4" stop-color="#ffcb5d" stop-opacity=".7"/>
    <stop offset=".5" stop-color="#ffbc55" stop-opacity=".5"/>
    <stop offset=".7" stop-color="#ffaa4b" stop-opacity=".3"/>
    <stop offset=".8" stop-color="#ff9640" stop-opacity="0"/>
  </radialGradient>
  <radialGradient id="i" cx="49.9" cy="38.7" gradientTransform="matrix(.247 .971 -1.011 .259 76.7 -19.9)" gradientUnits="userSpaceOnUse" r="41.8">
    <stop offset=".4" stop-color="#fc4055"/>
    <stop offset=".4" stop-color="#fd604d" stop-opacity=".6"/>
    <stop offset=".5" stop-color="#fe8644" stop-opacity=".2"/>
    <stop offset=".6" stop-color="#ff9640" stop-opacity="0"/>
  </radialGradient>
  <radialGradient id="j" cx="42.7" cy="42.1" gradientUnits="userSpaceOnUse" r="41.8">
    <stop offset=".2" stop-color="#fc4055" stop-opacity=".8"/>
    <stop offset=".3" stop-color="#fd5251" stop-opacity=".6"/>
    <stop offset=".4" stop-color="#fe8345" stop-opacity=".2"/>
    <stop offset=".5" stop-color="#ff9640" stop-opacity="0"/>
  </radialGradient>
  <radialGradient id="k" cx="-1238.2" cy="-87.4" gradientTransform="matrix(.959 0 0 .961 1273.9 86.5)" gradientUnits="userSpaceOnUse" r="150.2">
    <stop offset=".1" stop-color="#fff36e"/>
    <stop offset=".5" stop-color="#ff9640"/>
    <stop offset=".6" stop-color="#ff9640"/>
  </radialGradient>
  <linearGradient id="l" gradientUnits="userSpaceOnUse" x1="59.1" x2="18.2" y1="7.1" y2="77.9">
    <stop offset="0" stop-color="#fff36e" stop-opacity=".8"/>
    <stop offset=".1" stop-color="#fff36e" stop-opacity=".7"/>
    <stop offset=".8" stop-color="#fff36e" stop-opacity="0"/>
  </linearGradient>
  <linearGradient id="m" gradientUnits="userSpaceOnUse" x1="40.6" x2="62.3" y1="-.7" y2="62.2">
    <stop offset="0" stop-color="#b833e1"/>
    <stop offset=".4" stop-color="#9059ff"/>
    <stop offset=".6" stop-color="#5b6df8"/>
    <stop offset="1" stop-color="#0090ed"/>
  </linearGradient>
  <linearGradient id="n" gradientUnits="userSpaceOnUse" x1="27.7" x2="68.1" y1=".3" y2="40.7">
    <stop offset=".8" stop-color="#722291" stop-opacity="0"/>
    <stop offset="1" stop-color="#592acb" stop-opacity=".5"/>
  </linearGradient>
  <path d="M72 15.7A39.5 39.5 0 0 0 41.5 0 35 35 0 0 0 22.3 5a37.4 37.4 0 0 1 18-4.4C56 .7 73 11.5 75.7 31 78.6 53.2 63 72 41.2 72c-24 0-38.7-21.2-34.9-40.3a19.7 19.7 0 0 1 .4-2.8 37.8 37.8 0 0 1 4.2-14c-2.8 1.4-6.3 6-8 10.1A41.4 41.4 0 0 0 .3 45.1l.2 1.5a40 40 0 1 0 71.4-30.9z" fill="url(#a)"/>
  <path d="M72 15.7A39.5 39.5 0 0 0 41.5 0 35 35 0 0 0 22.3 5a37.4 37.4 0 0 1 18-4.4C56 .7 73 11.5 75.7 31 78.6 53.2 63 72 41.2 72c-24 0-38.7-21.2-34.9-40.3a19.7 19.7 0 0 1 .4-2.8 37.8 37.8 0 0 1 4.2-14c-2.8 1.4-6.3 6-8 10.1A41.4 41.4 0 0 0 .3 45.1l.2 1.5a40 40 0 1 0 71.4-30.9z" fill="url(#b)" opacity=".7"/>
  <path d="M72 15.7A39.5 39.5 0 0 0 41.5 0 35 35 0 0 0 22.3 5a37.4 37.4 0 0 1 18-4.4C56 .7 73 11.5 75.7 31 78.6 53.2 63 72 41.2 72c-24 0-38.7-21.2-34.9-40.3a19.7 19.7 0 0 1 .4-2.8 37.8 37.8 0 0 1 4.2-14c-2.8 1.4-6.3 6-8 10.1A41.4 41.4 0 0 0 .3 45.1l.2 1.5a40 40 0 1 0 71.4-30.9z" fill="url(#c)"/>
  <path d="M72 15.7A39.5 39.5 0 0 0 41.5 0 35 35 0 0 0 22.3 5a37.4 37.4 0 0 1 18-4.4C56 .7 73 11.5 75.7 31 78.6 53.2 63 72 41.2 72c-24 0-38.7-21.2-34.9-40.3a19.7 19.7 0 0 1 .4-2.8 37.8 37.8 0 0 1 4.2-14c-2.8 1.4-6.3 6-8 10.1A41.4 41.4 0 0 0 .3 45.1l.2 1.5a40 40 0 1 0 71.4-30.9z" fill="url(#d)"/>
  <path d="M72 15.7A39.5 39.5 0 0 0 41.5 0 35 35 0 0 0 22.3 5a37.4 37.4 0 0 1 18-4.4C56 .7 73 11.5 75.7 31 78.6 53.2 63 72 41.2 72c-24 0-38.7-21.2-34.9-40.3a19.7 19.7 0 0 1 .4-2.8 37.8 37.8 0 0 1 4.2-14c-2.8 1.4-6.3 6-8 10.1A41.4 41.4 0 0 0 .3 45.1l.2 1.5a40 40 0 1 0 71.4-30.9z" fill="url(#e)"/>
  <path d="M75.7 31a41 41 0 0 1 .3 7.2l4-.5a40 40 0 0 0-8-22A39.5 39.5 0 0 0 41.5 0 35 35 0 0 0 22.3 5a37.4 37.4 0 0 1 18-4.4C56 .7 73 11.5 75.7 31z" fill="url(#f)"/>
  <path d="M76.6 29.8C74.4 9.5 56.3.4 40.3.5 34 .5 27 2 22.3 5a19.7 19.7 0 0 0-3.6 2.7l1.1-.9h.1A26.7 26.7 0 0 1 27.8 3a43.5 43.5 0 0 1 13.1-1.5 33.3 33.3 0 0 1 31.3 32 24 24 0 0 1-23 24.3c-9 .5-17.5-3.9-21.7-12.7a21.7 21.7 0 0 1-2-6.3c-2-13.4 7-24.7 15.3-27.6-4.5-3.8-15.6-3.6-23.9 2.5-6 4.4-9.8 11-11 19a33 33 0 0 0 2.3 18 35.3 35.3 0 0 0 30 21.5h3c26.5 0 38-20 35.5-42.4z" fill="url(#g)"/>
  <path d="M76.6 29.8C74.4 9.5 56.3.4 40.3.5 34 .5 27 2 22.3 5a19.7 19.7 0 0 0-3.6 2.7l1.1-.9h.1A26.7 26.7 0 0 1 27.8 3a43.5 43.5 0 0 1 13.1-1.5 33.3 33.3 0 0 1 31.3 32 24 24 0 0 1-23 24.3c-9 .5-17.5-3.9-21.7-12.7a21.7 21.7 0 0 1-2-6.3c-2-13.4 7-24.7 15.3-27.6-4.5-3.8-15.6-3.6-23.9 2.5-6 4.4-9.8 11-11 19a33 33 0 0 0 2.3 18 35.3 35.3 0 0 0 30 21.5h3c26.5 0 38-20 35.5-42.4z" fill="url(#h)"/>
  <path d="M76.6 29.8C74.4 9.5 56.3.4 40.3.5 34 .5 27 2 22.3 5a19.7 19.7 0 0 0-3.6 2.7l1.1-.9h.1A26.7 26.7 0 0 1 27.8 3a43.5 43.5 0 0 1 13.1-1.5 33.3 33.3 0 0 1 31.3 32 24 24 0 0 1-23 24.3c-9 .5-17.5-3.9-21.7-12.7a21.7 21.7 0 0 1-2-6.3c-2-13.4 7-24.7 15.3-27.6-4.5-3.8-15.6-3.6-23.9 2.5-6 4.4-9.8 11-11 19a33 33 0 0 0 2.3 18 35.3 35.3 0 0 0 30 21.5h3c26.5 0 38-20 35.5-42.4z" fill="url(#i)" opacity=".5"/>
  <path d="M76.6 29.8C74.4 9.5 56.3.4 40.3.5 34 .5 27 2 22.3 5a19.7 19.7 0 0 0-3.6 2.7l1.1-.9h.1A26.7 26.7 0 0 1 27.8 3a43.5 43.5 0 0 1 13.1-1.5 33.3 33.3 0 0 1 31.3 32 24 24 0 0 1-23 24.3c-9 .5-17.5-3.9-21.7-12.7a21.7 21.7 0 0 1-2-6.3c-2-13.4 7-24.7 15.3-27.6-4.5-3.8-15.6-3.6-23.9 2.5-6 4.4-9.8 11-11 19a33 33 0 0 0 2.3 18 35.3 35.3 0 0 0 30 21.5h3c26.5 0 38-20 35.5-42.4z" fill="url(#j)" opacity=".5"/>
  <path d="M49.2 57.8A26.2 26.2 0 0 0 74 32.6C74.8 16.9 65.5 0 40.8 1.5A43.5 43.5 0 0 0 27.7 3 28.9 28.9 0 0 0 20 6.6l-.2.1-1 .8a33.5 33.5 0 0 1 20.9-3.9c14.1 1.9 27 12.9 27 27.4 0 11.1-8.6 19.7-18.7 19-15-.8-18.8-16.2-11-22.9-2-.4-6 .4-8.8 4.6-2.4 3.7-2.3 9.4-.8 13.4a22.1 22.1 0 0 0 21.8 12.7z" fill="url(#k)"/>
  <path d="M72 15.7a40 40 0 0 0-3.5-4 31.3 31.3 0 0 0-3.2-3 24.4 24.4 0 0 1 1.8 1.9 22.5 22.5 0 0 1 5 8.1C74 25.1 74 33 70 39.2A23.5 23.5 0 0 1 49 50.1h-1c-15-1-18.9-16.3-11-23-2.2-.4-6.1.4-8.9 4.6-2.4 3.7-2.3 9.4-.8 13.4a21.7 21.7 0 0 1-2-6.3c-2-13.4 7-24.7 15.3-27.6-4.5-3.8-15.6-3.6-23.9 2.5a27.8 27.8 0 0 0-10 14.6 38.5 38.5 0 0 1 4.1-13.5c-2.8 1.4-6.3 6-8 10.1A41.4 41.4 0 0 0 .3 45.1l.2 1.5a40 40 0 1 0 71.4-30.9z" fill="url(#l)"/>
  <path d="M72 18.7a22.5 22.5 0 0 0-4.9-8.1 30.2 30.2 0 0 0-9-6.5 40.5 40.5 0 0 0-9-3.2 39.8 39.8 0 0 0-16.6 0 28.7 28.7 0 0 0-13.8 6.7 32.1 32.1 0 0 1 8-3.2 33.6 33.6 0 0 1 31.2 8 27 27 0 0 1 4.3 5.4c5 8 4.5 18 .6 23.8a19 19 0 0 1-14.5 8.5A23.6 23.6 0 0 0 70 39.2c4-6.2 4.1-14.1 2-20.5z" fill="url(#m)"/>
  <path d="M72 18.7a22.5 22.5 0 0 0-4.9-8.1 30.2 30.2 0 0 0-9-6.5 40.5 40.5 0 0 0-9-3.2 39.8 39.8 0 0 0-16.6 0 28.7 28.7 0 0 0-13.8 6.7 32.1 32.1 0 0 1 8-3.2 33.6 33.6 0 0 1 31.2 8 27 27 0 0 1 4.3 5.4c5 8 4.5 18 .6 23.8a19 19 0 0 1-14.5 8.5A23.6 23.6 0 0 0 70 39.2c4-6.2 4.1-14.1 2-20.5z" fill="url(#n)"/>
</svg>
