<svg xmlns="http://www.w3.org/2000/svg" viewBox="0 0 24 24">
  <path d="M22.09 9.96A10.48 10.48 0 0 0 5.42 3.98C-.73 9.59.91 19.02 8.79 21.89c3.18.61 6.43.54 9.15-1.43 3.42-2.55 4.65-6.37 4.15-10.5Z" fill="#002494"/>
  <path d="M21.57 16.9a8.9 8.9 0 0 0 1.29-6.19v.09a.17.17 0 0 0-.02-.09s-.14.16-.35.47a8.57 8.57 0 0 0-.72-2.81l.22.53c-1.03-2.98-3.26-5.35-3.26-6.17-.22.25-.39.63-.48 1.08-1.92-1.82-2.48-2.67-2.48-3.19-2.25 2.61-3.21 6.9.18 9.07 2.07 2.55.34 7.71-3.03 8.06h.07a5.31 5.31 0 0 0-.26.03 4.8 4.8 0 0 1-3.98-1.51 3.2 3.2 0 0 1-.33-.42c1.93 1.94 3.82-.47 4.83-.34.29.11.53-.13.47-.43.74-.62-.86-1.64-1.94-1.42-.82.15-1.79.73-2.8.02-.07-.04.23.06.16.02a2.12 2.12 0 0 1-.63-.39c.24.09-.07-.09-.13-.16l.09.13a3.44 3.44 0 0 1-.27-.27l.17.14c-.37-.67-.29-1.29.26-1.65l.21.13-.09-.17h.03c.14.06.66.36.69.49.06-.11-.02-.25-.21-.43.1.04.2.12.28.19.09-.16.17-.79.07-1.01-.03-.07.02-.1.08-.03-.29-.73 2.5-.9 2.22-2.38.1-.32-.09-.48-.41-.57l.08.02c-.63-.2-1.51-.08-2.07-.5l.08.07c-.39-.27-.29-.85 1.09-2.18.03-.03-.13 0-.1-.02.29-.16.6-.2-.06-.29l.03-.02s-.15 0-.11-.02c.04-.04.33-.14.38-.16 0-.18-.97-.14-1.12 0 .07-.06.29-.14.24-.14a3.5 3.5 0 0 0-1.1.42c0-.03 0-.07.02-.1-.17.06-.57.32-.69.53v-.12c-.13.09-.24.2-.34.32a4.5 4.5 0 0 0-2.23-.26 5.96 5.96 0 0 1-.18-.35l-.28.22a3.73 3.73 0 0 1-.58-.88h-.01.01l-.02.02c-.21-.24-.22-.84-.23-1.17H4.3l-.06.03c-.15.11-.38.5-.51.75s-.03.05-.04.07c0-.06.05-.19 0-.12-.05-.01-.29.41-.29.54.02-.09.06-.17.1-.26-.03.03-.12.35-.1.21.01-.12 0-.07-.02-.02v-.03a5.49 5.49 0 0 0 0-.02 5.42 5.42 0 0 0-.55 1.99l.04-.27a8.59 8.59 0 0 0-.08.86C1.78 8.12 1.63 8.55.97 10.65c.18-.41.41-.79.66-1.16-.35.79-.68 2.02-.75 3.92.08-.39.19-.78.32-1.16C.9 16.5 3.89 21.39 9.17 23l-.11-.05c3.57 1.14 8.12.1 8.89-1.71l-.44.2c1.9-.81 3.94-2.17 4.06-4.03v.05c.03-.19.02-.36-.01-.51Z" fill="#0063e1"/>
</svg>
