<svg id="a" xmlns="http://www.w3.org/2000/svg" viewBox="0 0 24 24">
  <defs>
    <style>
      .b{fill:#6478a5}.e{fill:#0e1013}.h{fill:#fa0708}.m{fill:#465374}.n{fill:#7f0000}.o{fill:#2b2f37}.p{fill:#bb0202}
    </style>
  </defs>
  <path fill="#ccc" d="M0 0h24v24H0z"/>
  <path class="p" d="M16.84 13.22q2.45.15 2.36 2.22c-.05 1.33-.12 2.66-.13 3.98 0 .47-.13.7-.72.84-3.55.84-7.09 1.72-10.62 2.63-.58.15-.89.05-1.08-.41l-.05-.07a7.36 7.36 0 0 1-1.75-5.7c.08-1.03-.04-2.08-.07-3.11l1.62.81c.21.1.49.29.57-.12.26.15.55.2.86.18 2.41-.18 4.83-.33 7.23-.55.4-.04 1.2.13 1.14-.64l.63-.04Zm-.43 1.93c-.73.78-.68 1.69-.39 2.54.23.69 1.46.75 1.96.13.6-.75.85-1.58.44-2.48.02-.52.08-1.13-.58-1.32-.72-.21-.94.47-1.31.83-.08.08-.08.21-.11.32Z"/>
  <path class="o" d="M8.14 11.53c-3.82-2.1-3.61-7.45.38-9.59 1.21.72 2.1.41 2.27-.8 2.12-.35 3.87.36 5.46 1.46l-.45.07c-.59-.46-1.34-.31-2.03-.38-.23-.92-1.35-.81-1.72-.61-1.26.7-2.79.87-3.97 1.45-1.79.88-2.26 2.64-2.03 4.46a6 6 0 0 0 1.72 3.23c.09.25.44.39.36.71Z"/>
  <path class="n" d="M16.21 13.26c.05.77-.74.6-1.14.64-2.41.23-4.82.38-7.23.55-.31.02-.6-.02-.86-.18.31-.76 1.15-.7 1.83-.89l.35.02c.75-.18 1.52-.14 2.28-.18.72-.04 1.47.15 2.17-.13l2.6.15Z"/>
  <path d="M8.14 11.53c.08-.31-.28-.46-.36-.71h.78l.6-.17c.77 1.22 2.63 1.62 4.04.87l2.63-.52-.05.47-.05.03-.13.11a6.63 6.63 0 0 1-7.04.2l-.19-.12-.23-.15Z" fill="#180606"/>
  <path class="m" d="M18.41 7.01c-.03.95-.06 1.89-.98 2.58-.44.32-1.05.43-1.42.84-.77.22-1.56.25-2.36.14l-.06-.17v-.27c2.08-.31 3.34-1.36 3.84-3.11h.98Z"/>
  <path d="M18.41 7.01h-.98c-.05-.42-.01-.85-.12-1.28-.33-1.31-1.6-1.75-2.72-2.35.4-.24.96-.28 1.22-.7l.45-.07-.02.02c0 .16.06.17.17.05.42.51 1.13.84 1.25 1.53-.15.04-.35.03-.34.23 0 .02.04.06.07.06.23 0 .22-.17.27-.29.65.86.85 1.8.76 2.81Z" fill="#526184"/>
  <path class="h" d="M8.8 13.39c-.68.18-1.52.13-1.83.89-.08.41-.36.22-.57.12-.55-.26-1.08-.54-1.62-.81 1.33-.26 2.66-.48 4.02-.2Z"/>
  <path d="M10.79 1.14c-.17 1.21-1.06 1.52-2.27.8a4.47 4.47 0 0 1 2.27-.8Z" fill="#707277"/>
  <path class="o" d="M16.01 10.43c.37-.41.98-.52 1.42-.84a2.92 2.92 0 0 1-1.64 1.88l.05-.47c.23-.15.18-.36.18-.57Z"/>
  <path class="h" d="m16.21 13.26-2.6-.15-1.37-.04a9.93 9.93 0 0 1 4.6.16l-.63.04Z"/>
  <path class="p" d="m12.24 13.06 1.37.04c-.7.29-1.45.09-2.17.13-.76.04-1.53 0-2.28.18.97-.52 2.05-.3 3.09-.36Z"/>
  <path class="o" d="M16.42 2.67c-.11.12-.17.11-.17-.05l.17.05ZM8.14 11.53l.23.15c-.13 0-.21-.03-.23-.15ZM15.61 11.6l.13-.11-.13.11ZM8.38 11.68l.19.12c-.12.03-.18-.03-.19-.12Z"/>
  <path d="M18.42 15.33c.41.9.16 1.73-.44 2.48-.5.62-1.73.56-1.96-.13-.28-.85-.33-1.76.39-2.54.17.13.44.24.48.4.12.47.43.33.59.12.25-.34.69-.11.94-.34Z" fill="#790000"/>
  <path class="n" d="M18.42 15.33c-.25.22-.7 0-.94.34-.16.22-.47.35-.59-.12-.04-.16-.31-.27-.48-.4.04-.11.04-.24.11-.32.37-.36.59-1.04 1.31-.83.67.19.6.81.58 1.32Z"/>
  <path class="e" d="M8.56 10.82h-.78A5.93 5.93 0 0 1 6.06 7.6c-.23-1.82.23-3.58 2.03-4.46 1.19-.59 2.71-.75 3.97-1.45.36-.2 1.49-.31 1.72.61-.51-.02-.94.23-1.39.36-.16-.58-.54-.24-.84-.14-.88.28-1.74.58-2.62.84-.27.08-.49.18-.65.37-1.79 2.16-2.25 3.98-.01 6.39.2.22.33.43.3.7Z"/>
  <path class="m" d="M12.39 2.65c.46-.14.88-.38 1.39-.36.69.07 1.44-.08 2.03.38-.26.42-.82.46-1.22.7-1.07-.13-2.1.16-3.15.18a.45.45 0 0 1-.03-.16l.98-.74Z"/>
  <path d="M11.41 3.39c0 .06.01.11.03.16-.64.29-.68.86-.84 1.38-.59 1.76.09 3.82 1.56 4.72.27.54.81.7 1.43.74l.06.17-.45.95c-1.41.75-3.27.35-4.04-.87.03-.43-.2-.77-.54-1.07-1.78-1.59-1.41-4.42.76-5.73.54-.33 1.16-.97 2.02-.45Z" fill="#020202"/>
  <path d="M11.41 3.39c-.87-.52-1.48.12-2.02.45-2.17 1.32-2.54 4.15-.76 5.73.34.3.56.64.54 1.07l-.6.17c.03-.28-.1-.48-.3-.7-2.24-2.4-1.78-4.23.01-6.39.16-.19.38-.29.65-.37.88-.26 1.75-.56 2.62-.84.3-.1.68-.44.84.14l-.98.74Z" fill="#060708"/>
  <path class="e" d="m13.2 11.51.45-.95c.8.12 1.59.09 2.36-.14 0 .2.05.42-.18.57l-2.63.52Z"/>
  <path class="b" d="M10.6 4.93c.16-.51.19-1.08.84-1.38 1.05-.02 2.09-.32 3.15-.18 1.12.6 2.39 1.04 2.72 2.35.11.43.07.85.12 1.28-.5 1.75-1.76 2.81-3.84 3.11-.04-.66.19-1.4-.81-1.73.06-1.52-.35-2.82-2.18-3.46Z"/>
  <path d="M12.78 8.39c.99.33.77 1.07.81 1.73v.27c-.62-.04-1.16-.19-1.43-.74l.62-1.27Z" fill="#7c8cb3"/>
  <path class="b" d="M17.66 4.2c-.05.13-.03.3-.27.29-.02 0-.07-.04-.07-.06 0-.2.19-.19.34-.23Z"/>
</svg>
