<svg id="a" xmlns="http://www.w3.org/2000/svg" viewBox="0 0 24 24">
  <defs>
    <style>
      .b{fill:#6478a5}.e{fill:#0e1013}.h{fill:#fa0708}.m{fill:#465374}.n{fill:#7f0000}.o{fill:#2b2f37}.p{fill:#bb0202}
    </style>
  </defs>
  <path fill="#ccc" d="M0 0h24v24H0z"/>
  <path class="p" d="M17.98 13.22q3.03.15 2.92 2.22c-.07 1.33-.14 2.66-.16 3.98 0 .47-.16.7-.89.84a802 802 0 0 0-13.13 2.63c-.72.15-1.1.05-1.34-.41-.01-.03-.04-.05-.07-.07a6.49 6.49 0 0 1-2.17-5.7c.1-1.03-.05-2.08-.09-3.11.67.27 1.33.55 2.01.81.27.1.61.29.71-.12.32.15.68.2 1.06.18 2.98-.18 5.97-.33 8.95-.55.5-.04 1.48.13 1.41-.64l.78-.04Zm-.53 1.93c-.9.78-.84 1.69-.49 2.54.28.69 1.81.75 2.42.13.75-.75 1.06-1.58.55-2.48.02-.52.1-1.13-.72-1.32-.89-.21-1.17.47-1.62.83-.1.08-.1.21-.14.32Z"/>
  <path class="o" d="M7.23 11.53c-4.72-2.1-4.46-7.45.47-9.59 1.5.72 2.6.41 2.81-.8 2.62-.35 4.78.36 6.76 1.46l-.55.07c-.73-.46-1.66-.31-2.51-.38-.29-.92-1.68-.81-2.13-.61-1.56.7-3.44.87-4.91 1.45-2.22.88-2.8 2.64-2.51 4.46.2 1.25 1.05 2.27 2.12 3.23.11.25.55.39.45.71Z"/>
  <path class="n" d="M17.2 13.26c.06.77-.92.6-1.41.64-2.98.23-5.96.38-8.95.55-.38.02-.74-.02-1.06-.18.38-.76 1.42-.7 2.26-.89l.43.02c.93-.18 1.88-.14 2.82-.18.9-.04 1.82.15 2.69-.13l3.22.15Z"/>
  <path d="M7.23 11.53c.1-.31-.34-.46-.45-.71h.97l.75-.17c.95 1.22 3.25 1.62 4.99.87l3.25-.52-.06.47-.06.03-.16.11a9.87 9.87 0 0 1-8.71.2l-.24-.12H7.5l-.28-.15Z" fill="#180606"/>
  <path class="m" d="M19.93 7.01c-.03.95-.08 1.89-1.22 2.58-.55.32-1.3.43-1.76.84-.95.22-1.93.25-2.92.14l-.07-.17v-.27c2.57-.31 4.13-1.36 4.75-3.11h1.21Z"/>
  <path d="M19.93 7.01h-1.21c-.06-.43-.02-.85-.15-1.28-.4-1.31-1.97-1.75-3.36-2.35.5-.24 1.19-.28 1.51-.7l.55-.07-.02.02c0 .16.08.17.22.05.52.51 1.4.84 1.54 1.53-.18.04-.43.03-.42.23 0 .02.05.06.08.06.29 0 .27-.17.33-.29.81.86 1.05 1.8.94 2.81Z" fill="#526184"/>
  <path class="h" d="M8.04 13.39c-.84.18-1.88.13-2.26.89-.1.41-.44.22-.71.12-.68-.26-1.34-.54-2.01-.81 1.64-.26 3.29-.48 4.97-.2Z"/>
  <path d="M10.51 1.14c-.21 1.21-1.31 1.52-2.81.8a6.4 6.4 0 0 1 2.81-.8Z" fill="#707277"/>
  <path class="o" d="M16.96 10.43c.46-.41 1.21-.52 1.76-.84-.28.84-.97 1.45-2.03 1.88l.06-.47c.29-.15.23-.36.22-.57Z"/>
  <path class="h" d="m17.2 13.26-3.22-.15-1.69-.04c1.92-.25 3.82-.31 5.69.16l-.78.04Z"/>
  <path class="p" d="m12.29 13.06 1.69.04c-.87.29-1.79.09-2.69.13-.94.04-1.9 0-2.82.18 1.2-.52 2.53-.3 3.82-.36Z"/>
  <path class="o" d="M17.46 2.67c-.14.12-.21.11-.22-.05l.22.05ZM7.22 11.53l.28.15c-.16 0-.26-.03-.28-.15ZM16.46 11.6l.16-.11-.16.11ZM7.52 11.68l.24.12c-.15.03-.22-.03-.24-.12Z"/>
  <path d="M19.94 15.33c.51.9.2 1.73-.55 2.48-.62.62-2.14.56-2.42-.13-.35-.85-.41-1.76.49-2.54.21.13.54.24.59.4.15.47.53.33.73.12.3-.34.85-.11 1.17-.34Z" fill="#790000"/>
  <path class="n" d="M19.94 15.33c-.31.22-.86 0-1.17.34-.19.22-.58.35-.73-.12-.05-.16-.39-.27-.59-.4.04-.11.04-.24.14-.32.46-.36.73-1.04 1.62-.83.83.19.74.81.72 1.32Z"/>
  <path class="e" d="M7.75 10.82h-.97C5.71 9.87 4.86 8.85 4.66 7.6c-.29-1.82.29-3.58 2.51-4.46 1.47-.59 3.36-.75 4.91-1.45.45-.2 1.84-.31 2.13.61-.63-.02-1.16.23-1.72.36-.2-.58-.67-.24-1.04-.14-1.08.28-2.15.58-3.25.84-.33.08-.61.18-.8.37-2.22 2.16-2.79 3.98-.01 6.39.25.22.41.43.37.7Z"/>
  <path class="m" d="M12.48 2.65c.57-.14 1.09-.38 1.72-.36.86.07 1.78-.08 2.51.38-.32.42-1.01.46-1.51.7-1.32-.13-2.59.16-3.9.18a.32.32 0 0 1-.04-.16l1.21-.74Z"/>
  <path d="M11.27 3.39c0 .06.01.11.04.16-.8.29-.84.86-1.04 1.38a3.73 3.73 0 0 0 1.93 4.72c.33.54 1 .7 1.76.74l.07.17-.56.95c-1.74.75-4.04.35-4.99-.87.03-.43-.25-.77-.66-1.07-2.21-1.59-1.75-4.42.93-5.73.67-.33 1.43-.97 2.5-.45Z" fill="#020202"/>
  <path d="M11.27 3.39c-1.07-.52-1.83.12-2.5.45-2.68 1.32-3.14 4.15-.93 5.73.42.3.7.64.66 1.07l-.75.17c.03-.28-.12-.48-.37-.7-2.77-2.4-2.21-4.23.01-6.39.2-.19.47-.29.8-.37 1.09-.26 2.16-.56 3.25-.84.37-.1.84-.44 1.04.14l-1.21.74Z" fill="#060708"/>
  <path class="e" d="m13.49 11.51.56-.95c.99.12 1.96.09 2.92-.14 0 .2.07.42-.22.57l-3.25.52Z"/>
  <path class="b" d="M10.27 4.93c.19-.51.24-1.08 1.04-1.38 1.3-.02 2.58-.32 3.9-.18 1.39.6 2.96 1.04 3.36 2.35.13.43.09.85.15 1.28-.62 1.75-2.18 2.81-4.75 3.11-.05-.66.23-1.4-1-1.73.08-1.52-.44-2.82-2.7-3.46Z"/>
  <path d="M12.97 8.39c1.23.33.95 1.07 1 1.73v.27c-.76-.04-1.43-.19-1.76-.74l.76-1.27Z" fill="#7c8cb3"/>
  <path class="b" d="M18.99 4.2c-.06.13-.04.3-.33.29-.03 0-.08-.04-.08-.06 0-.2.24-.19.42-.23Z"/>
</svg>
