<svg id="Layer_2" data-name="Layer 2" xmlns="http://www.w3.org/2000/svg" viewBox="0 0 22 13.2">
  <defs>
    <style>
      .cls-3{fill:#fff}
    </style>
  </defs>
  <rect width="22" height="13.2" rx="1.78" fill="#003f82"/>
  <path d="M11.2 2.69a1.25 1.25 0 0 1-1.28-1.23 1.28 1.28 0 0 1 2.56 0 1.25 1.25 0 0 1-1.28 1.23Zm.71-1.23a.71.71 0 0 0-1.42 0 .71.71 0 0 0 1.42 0Z" fill="#5d6899"/>
  <path d="M11.2 2.58A1.15 1.15 0 0 1 10 1.46a1.16 1.16 0 0 1 2.32 0 1.15 1.15 0 0 1-1.12 1.12Zm.8-1.12a.81.81 0 0 0-1.62 0 .81.81 0 0 0 1.62 0Z"/>
  <path class="cls-3" d="M13.69 8.89V4.31c1.43 0 2.83-.1 4.2 0A2.25 2.25 0 0 1 20 6.63a2.2 2.2 0 0 1-2.12 2.24c-1.39.13-2.76.02-4.19.02ZM16 4.72v3.77c.92.15 1.33-.06 1.45-.87a7.41 7.41 0 0 0 0-1.94c-.16-.88-.52-1.08-1.45-.96ZM2.55 8.85V4.31h2.21v1.94h1.67V4.32h2.24v4.52H6.45V7H4.79v1.85ZM10.11 8.85V4.33h2.18v4.52Z"/>
  <path fill="#f05039" d="M10.11 2.84h2.18v1h-2.18z"/>
</svg>